ffmpeg started on 2026-01-15 at 21:37:47
Report written to "D:\Convert\FFMetrics\reports\psnr_report-6.txt"
Log level: 32
Command line:
ffmpeg -hide_banner -nostdin -r 24000/1001 -i "F:\\Convert\\files\\[DC] Make Heroine ga Oosugiru - 07_Telegram_HEVC(141).mkv" -r 24000/1001 -i "F:\\Convert\\files\\[DC] Make Heroine ga Oosugiru - 07_Telegram.mp4" -lavfi "[0:v]settb=AVTB,setpts=PTS-STARTPTS,format=pix_fmts=yuv420p10le,fps=24000/1001,scale=1920:1080:flags=lanczos:param0=3:out_range=limited:out_color_matrix=bt709:out_chroma_loc=left,setsar=1/1,setdar=(1920/1080)*(1/1),colorspace=format=yuv420p10:range=tv:primaries=bt709:trc=bt709:space=bt709:fast=0[main];[1:v]settb=AVTB,setpts=PTS-STARTPTS,format=pix_fmts=yuv420p,fps=24000/1001,scale=1920:1080:flags=lanczos:param0=3:out_range=limited:out_color_matrix=bt709:out_chroma_loc=left,setsar=1.000,setdar=1.778,colorspace=format=yuv420p:range=tv:primaries=bt709:trc=bt709:space=bt709:fast=0[ref];[main][ref]psnr=eof_action=endall:stats_file='D\\:/Convert/FFMetrics/logs/psnr_logfile-6.txt'" -f null -
Input #0, matroska,webm, from 'F:\Convert\files\[DC] Make Heroine ga Oosugiru - 07_Telegram_HEVC(141).mkv':
  Metadata:
    COMPATIBLE_BRANDS: isomiso2avc1mp41
    MAJOR_BRAND     : isom
    MINOR_VERSION   : 512
    ENCODER         : Lavf61.7.100
  Duration: 00:24:06.79, start: -0.021000, bitrate: 971 kb/s
  Stream #0:0: Video: hevc (Main 10), yuv420p10le(tv, bt709, progressive), 1920x1080 [SAR 1:1 DAR 16:9], 23.98 fps, 23.98 tbr, 1k tbn (default)
      Metadata:
        HANDLER_NAME    : VideoHandler
        VENDOR_ID       : [0][0][0][0]
        ENCODER         : Lavc61.19.100 libx265
        BPS             : 773913
        DURATION        : 00:24:06.569708333
        NUMBER_OF_FRAMES: 34683
        NUMBER_OF_BYTES : 139939845
        _STATISTICS_WRITING_APP: mkvpropedit v94.0 ('Initiate') 64-bit
        _STATISTICS_WRITING_DATE_UTC: 2026-01-15 18:24:30
        _STATISTICS_TAGS: BPS DURATION NUMBER_OF_FRAMES NUMBER_OF_BYTES
  Stream #0:1: Audio: aac (LC), 48000 Hz, stereo, fltp (default)
      Metadata:
        HANDLER_NAME    : SoundHandler
        VENDOR_ID       : [0][0][0][0]
        ENCODER         : Lavc61.19.100 aac
        BPS             : 193194
        DURATION        : 00:24:06.784000000
        NUMBER_OF_FRAMES: 67819
        NUMBER_OF_BYTES : 34938755
        _STATISTICS_WRITING_APP: mkvpropedit v94.0 ('Initiate') 64-bit
        _STATISTICS_WRITING_DATE_UTC: 2026-01-15 18:24:30
        _STATISTICS_TAGS: BPS DURATION NUMBER_OF_FRAMES NUMBER_OF_BYTES
Input #1, mov,mp4,m4a,3gp,3g2,mj2, from 'F:\Convert\files\[DC] Make Heroine ga Oosugiru - 07_Telegram.mp4':
  Metadata:
    major_brand     : isom
    minor_version   : 512
    compatible_brands: isomiso2avc1mp41
    encoder         : Lavf60.16.100
  Duration: 00:24:06.74, start: 0.000000, bitrate: 3764 kb/s
  Stream #1:0[0x1](und): Video: h264 (High) (avc1 / 0x31637661), yuv420p(tv, bt709, progressive), 1920x1080 [SAR 1:1 DAR 16:9], 3616 kb/s, 23.98 fps, 23.98 tbr, 24k tbn (default)
      Metadata:
        handler_name    : VideoHandler
        vendor_id       : [0][0][0][0]
        encoder         : Lavc60.31.102 h264_qsv
  Stream #1:1[0x2](und): Audio: aac (HE-AACv2) (mp4a / 0x6134706D), 48000 Hz, stereo, fltp, 144 kb/s (default)
      Metadata:
        handler_name    : SoundHandler
        vendor_id       : [0][0][0][0]
Stream mapping:
  Stream #0:0 (hevc) -> settb:default
  Stream #1:0 (h264) -> settb:default
  psnr:default -> Stream #0:0 (wrapped_avframe)
  Stream #0:1 -> #0:1 (aac (native) -> pcm_s16le (native))
Output #0, null, to 'pipe:':
  Metadata:
    COMPATIBLE_BRANDS: isomiso2avc1mp41
    MAJOR_BRAND     : isom
    MINOR_VERSION   : 512
    encoder         : Lavf61.7.100
  Stream #0:0: Video: wrapped_avframe, yuv420p10le(tv, bt709, progressive), 1920x1080 [SAR 1:1 DAR 16:9], q=2-31, 200 kb/s, 23.98 fps, 23.98 tbn
      Metadata:
        encoder         : Lavc61.19.100 wrapped_avframe
  Stream #0:1: Audio: pcm_s16le, 48000 Hz, stereo, s16, 1536 kb/s (default)
      Metadata:
        HANDLER_NAME    : SoundHandler
        VENDOR_ID       : [0][0][0][0]
        _STATISTICS_TAGS: BPS DURATION NUMBER_OF_FRAMES NUMBER_OF_BYTES
        BPS             : 193194
        DURATION        : 00:24:06.784000000
        NUMBER_OF_FRAMES: 67819
        NUMBER_OF_BYTES : 34938755
        _STATISTICS_WRITING_APP: mkvpropedit v94.0 ('Initiate') 64-bit
        _STATISTICS_WRITING_DATE_UTC: 2026-01-15 18:24:30
        encoder         : Lavc61.19.100 pcm_s16le
frame=  127 fps=0.0 q=-0.0 size=N/A time=00:00:05.29 bitrate=N/A speed=10.3x    frame=  320 fps=312 q=-0.0 size=N/A time=00:00:13.34 bitrate=N/A speed=  13x    frame=  471 fps=307 q=-0.0 size=N/A time=00:00:19.64 bitrate=N/A speed=12.8x    frame=  671 fps=325 q=-0.0 size=N/A time=00:00:27.98 bitrate=N/A speed=13.6x    frame=  860 fps=334 q=-0.0 size=N/A time=00:00:35.86 bitrate=N/A speed=13.9x    frame=  994 fps=322 q=-0.0 size=N/A time=00:00:41.45 bitrate=N/A speed=13.4x    frame= 1162 fps=322 q=-0.0 size=N/A time=00:00:48.46 bitrate=N/A speed=13.4x    frame= 1318 fps=320 q=-0.0 size=N/A time=00:00:54.97 bitrate=N/A speed=13.3x    frame= 1485 fps=320 q=-0.0 size=N/A time=00:01:01.93 bitrate=N/A speed=13.4x    frame= 1626 fps=316 q=-0.0 size=N/A time=00:01:07.81 bitrate=N/A speed=13.2x    frame= 1793 fps=316 q=-0.0 size=N/A time=00:01:14.78 bitrate=N/A speed=13.2x    frame= 1957 fps=317 q=-0.0 size=N/A time=00:01:21.62 bitrate=N/A speed=13.2x    frame= 2089 fps=312 q=-0.0 size=N/A time=00:01:27.12 bitrate=N/A speed=  13x    frame= 2242 fps=311 q=-0.0 size=N/A time=00:01:33.51 bitrate=N/A speed=  13x    frame= 2387 fps=309 q=-0.0 size=N/A time=00:01:39.55 bitrate=N/A speed=12.9x    frame= 2525 fps=306 q=-0.0 size=N/A time=00:01:45.31 bitrate=N/A speed=12.8x    frame= 2680 fps=306 q=-0.0 size=N/A time=00:01:51.77 bitrate=N/A speed=12.8x    frame= 2862 fps=308 q=-0.0 size=N/A time=00:01:59.36 bitrate=N/A speed=12.9x    frame= 3039 fps=310 q=-0.0 size=N/A time=00:02:06.75 bitrate=N/A speed=12.9x    frame= 3231 fps=314 q=-0.0 size=N/A time=00:02:14.75 bitrate=N/A speed=13.1x    frame= 3434 fps=317 q=-0.0 size=N/A time=00:02:23.22 bitrate=N/A speed=13.2x    frame= 3627 fps=320 q=-0.0 size=N/A time=00:02:31.27 bitrate=N/A speed=13.3x    frame= 3820 fps=322 q=-0.0 size=N/A time=00:02:39.32 bitrate=N/A speed=13.4x    frame= 4021 fps=325 q=-0.0 size=N/A time=00:02:47.70 bitrate=N/A speed=13.6x    frame= 4203 fps=326 q=-0.0 size=N/A time=00:02:55.30 bitrate=N/A speed=13.6x    frame= 4399 fps=328 q=-0.0 size=N/A time=00:03:03.47 bitrate=N/A speed=13.7x    frame= 4599 fps=331 q=-0.0 size=N/A time=00:03:11.81 bitrate=N/A speed=13.8x    frame= 4800 fps=332 q=-0.0 size=N/A time=00:03:20.20 bitrate=N/A speed=13.9x    frame= 4992 fps=334 q=-0.0 size=N/A time=00:03:28.20 bitrate=N/A speed=13.9x    frame= 5187 fps=336 q=-0.0 size=N/A time=00:03:36.34 bitrate=N/A speed=  14x    frame= 5383 fps=337 q=-0.0 size=N/A time=00:03:44.51 bitrate=N/A speed=14.1x    frame= 5589 fps=339 q=-0.0 size=N/A time=00:03:53.10 bitrate=N/A speed=14.1x    frame= 5787 fps=340 q=-0.0 size=N/A time=00:04:01.36 bitrate=N/A speed=14.2x    frame= 5987 fps=342 q=-0.0 size=N/A time=00:04:09.70 bitrate=N/A speed=14.3x    frame= 6181 fps=343 q=-0.0 size=N/A time=00:04:17.79 bitrate=N/A speed=14.3x    frame= 6392 fps=344 q=-0.0 size=N/A time=00:04:26.59 bitrate=N/A speed=14.4x    frame= 6584 fps=345 q=-0.0 size=N/A time=00:04:34.60 bitrate=N/A speed=14.4x    frame= 6792 fps=347 q=-0.0 size=N/A time=00:04:43.28 bitrate=N/A speed=14.5x    frame= 6984 fps=348 q=-0.0 size=N/A time=00:04:51.29 bitrate=N/A speed=14.5x    frame= 7177 fps=348 q=-0.0 size=N/A time=00:04:59.34 bitrate=N/A speed=14.5x    frame= 7372 fps=349 q=-0.0 size=N/A time=00:05:07.47 bitrate=N/A speed=14.5x    frame= 7565 fps=349 q=-0.0 size=N/A time=00:05:15.52 bitrate=N/A speed=14.6x    frame= 7760 fps=350 q=-0.0 size=N/A time=00:05:23.65 bitrate=N/A speed=14.6x    frame= 7963 fps=351 q=-0.0 size=N/A time=00:05:32.12 bitrate=N/A speed=14.6x    frame= 8157 fps=351 q=-0.0 size=N/A time=00:05:40.21 bitrate=N/A speed=14.7x    frame= 8350 fps=352 q=-0.0 size=N/A time=00:05:48.26 bitrate=N/A speed=14.7x    frame= 8547 fps=353 q=-0.0 size=N/A time=00:05:56.48 bitrate=N/A speed=14.7x    frame= 8752 fps=353 q=-0.0 size=N/A time=00:06:05.03 bitrate=N/A speed=14.7x    frame= 8944 fps=354 q=-0.0 size=N/A time=00:06:13.03 bitrate=N/A speed=14.8x    frame= 9141 fps=354 q=-0.0 size=N/A time=00:06:21.25 bitrate=N/A speed=14.8x    frame= 9332 fps=355 q=-0.0 size=N/A time=00:06:29.22 bitrate=N/A speed=14.8x    frame= 9536 fps=355 q=-0.0 size=N/A time=00:06:37.73 bitrate=N/A speed=14.8x    frame= 9728 fps=356 q=-0.0 size=N/A time=00:06:45.73 bitrate=N/A speed=14.8x    frame= 9929 fps=356 q=-0.0 size=N/A time=00:06:54.12 bitrate=N/A speed=14.9x    frame=10123 fps=357 q=-0.0 size=N/A time=00:07:02.21 bitrate=N/A speed=14.9x    frame=10325 fps=357 q=-0.0 size=N/A time=00:07:10.63 bitrate=N/A speed=14.9x    frame=10523 fps=358 q=-0.0 size=N/A time=00:07:18.89 bitrate=N/A speed=14.9x    frame=10714 fps=358 q=-0.0 size=N/A time=00:07:26.86 bitrate=N/A speed=14.9x    frame=10899 fps=358 q=-0.0 size=N/A time=00:07:34.57 bitrate=N/A speed=14.9x    frame=11099 fps=359 q=-0.0 size=N/A time=00:07:42.92 bitrate=N/A speed=  15x    frame=11285 fps=359 q=-0.0 size=N/A time=00:07:50.67 bitrate=N/A speed=  15x    frame=11478 fps=359 q=-0.0 size=N/A time=00:07:58.72 bitrate=N/A speed=  15x    frame=11669 fps=359 q=-0.0 size=N/A time=00:08:06.69 bitrate=N/A speed=  15x    frame=11880 fps=360 q=-0.0 size=N/A time=00:08:15.49 bitrate=N/A speed=  15x    frame=12080 fps=360 q=-0.0 size=N/A time=00:08:23.83 bitrate=N/A speed=  15x    frame=12275 fps=361 q=-0.0 size=N/A time=00:08:31.96 bitrate=N/A speed=  15x    frame=12472 fps=361 q=-0.0 size=N/A time=00:08:40.18 bitrate=N/A speed=15.1x    frame=12666 fps=361 q=-0.0 size=N/A time=00:08:48.27 bitrate=N/A speed=15.1x    frame=12870 fps=362 q=-0.0 size=N/A time=00:08:56.78 bitrate=N/A speed=15.1x    frame=13070 fps=362 q=-0.0 size=N/A time=00:09:05.12 bitrate=N/A speed=15.1x    frame=13263 fps=362 q=-0.0 size=N/A time=00:09:13.17 bitrate=N/A speed=15.1x    frame=13462 fps=362 q=-0.0 size=N/A time=00:09:21.47 bitrate=N/A speed=15.1x    frame=13653 fps=363 q=-0.0 size=N/A time=00:09:29.44 bitrate=N/A speed=15.1x    frame=13850 fps=363 q=-0.0 size=N/A time=00:09:37.66 bitrate=N/A speed=15.1x    frame=14044 fps=363 q=-0.0 size=N/A time=00:09:45.75 bitrate=N/A speed=15.1x    frame=14224 fps=363 q=-0.0 size=N/A time=00:09:53.25 bitrate=N/A speed=15.1x    frame=14426 fps=363 q=-0.0 size=N/A time=00:10:01.68 bitrate=N/A speed=15.1x    frame=14618 fps=363 q=-0.0 size=N/A time=00:10:09.69 bitrate=N/A speed=15.2x    frame=14813 fps=364 q=-0.0 size=N/A time=00:10:17.82 bitrate=N/A speed=15.2x    frame=15007 fps=364 q=-0.0 size=N/A time=00:10:25.91 bitrate=N/A speed=15.2x    frame=15168 fps=363 q=-0.0 size=N/A time=00:10:32.63 bitrate=N/A speed=15.1x    frame=15350 fps=363 q=-0.0 size=N/A time=00:10:40.22 bitrate=N/A speed=15.1x    frame=15545 fps=363 q=-0.0 size=N/A time=00:10:48.35 bitrate=N/A speed=15.1x    frame=15749 fps=363 q=-0.0 size=N/A time=00:10:56.86 bitrate=N/A speed=15.2x    frame=15951 fps=364 q=-0.0 size=N/A time=00:11:05.28 bitrate=N/A speed=15.2x    frame=16140 fps=364 q=-0.0 size=N/A time=00:11:13.17 bitrate=N/A speed=15.2x    frame=16344 fps=364 q=-0.0 size=N/A time=00:11:21.68 bitrate=N/A speed=15.2x    frame=16534 fps=364 q=-0.0 size=N/A time=00:11:29.60 bitrate=N/A speed=15.2x    frame=16736 fps=364 q=-0.0 size=N/A time=00:11:38.03 bitrate=N/A speed=15.2x    frame=16926 fps=365 q=-0.0 size=N/A time=00:11:45.95 bitrate=N/A speed=15.2x    frame=17119 fps=365 q=-0.0 size=N/A time=00:11:54.00 bitrate=N/A speed=15.2x    frame=17326 fps=365 q=-0.0 size=N/A time=00:12:02.63 bitrate=N/A speed=15.2x    frame=17524 fps=365 q=-0.0 size=N/A time=00:12:10.89 bitrate=N/A speed=15.2x    frame=17723 fps=365 q=-0.0 size=N/A time=00:12:19.19 bitrate=N/A speed=15.2x    frame=17912 fps=365 q=-0.0 size=N/A time=00:12:27.07 bitrate=N/A speed=15.2x    frame=18112 fps=366 q=-0.0 size=N/A time=00:12:35.42 bitrate=N/A speed=15.3x    frame=18301 fps=366 q=-0.0 size=N/A time=00:12:43.30 bitrate=N/A speed=15.3x    frame=18484 fps=366 q=-0.0 size=N/A time=00:12:50.93 bitrate=N/A speed=15.2x    frame=18667 fps=366 q=-0.0 size=N/A time=00:12:58.56 bitrate=N/A speed=15.2x    frame=18871 fps=366 q=-0.0 size=N/A time=00:13:07.07 bitrate=N/A speed=15.3x    frame=19063 fps=366 q=-0.0 size=N/A time=00:13:15.08 bitrate=N/A speed=15.3x    frame=19266 fps=366 q=-0.0 size=N/A time=00:13:23.55 bitrate=N/A speed=15.3x    frame=19467 fps=366 q=-0.0 size=N/A time=00:13:31.93 bitrate=N/A speed=15.3x    frame=19662 fps=366 q=-0.0 size=N/A time=00:13:40.06 bitrate=N/A speed=15.3x    frame=19867 fps=367 q=-0.0 size=N/A time=00:13:48.61 bitrate=N/A speed=15.3x    frame=20060 fps=367 q=-0.0 size=N/A time=00:13:56.66 bitrate=N/A speed=15.3x    frame=20268 fps=367 q=-0.0 size=N/A time=00:14:05.34 bitrate=N/A speed=15.3x    frame=20460 fps=367 q=-0.0 size=N/A time=00:14:13.35 bitrate=N/A speed=15.3x    frame=20639 fps=367 q=-0.0 size=N/A time=00:14:20.81 bitrate=N/A speed=15.3x    frame=20835 fps=367 q=-0.0 size=N/A time=00:14:28.99 bitrate=N/A speed=15.3x    frame=21045 fps=367 q=-0.0 size=N/A time=00:14:37.75 bitrate=N/A speed=15.3x    frame=21238 fps=368 q=-0.0 size=N/A time=00:14:45.80 bitrate=N/A speed=15.3x    frame=21435 fps=368 q=-0.0 size=N/A time=00:14:54.01 bitrate=N/A speed=15.3x    frame=21634 fps=368 q=-0.0 size=N/A time=00:15:02.31 bitrate=N/A speed=15.3x    frame=21827 fps=368 q=-0.0 size=N/A time=00:15:10.36 bitrate=N/A speed=15.3x    frame=22037 fps=368 q=-0.0 size=N/A time=00:15:19.12 bitrate=N/A speed=15.4x    frame=22232 fps=368 q=-0.0 size=N/A time=00:15:27.25 bitrate=N/A speed=15.4x    frame=22427 fps=368 q=-0.0 size=N/A time=00:15:35.39 bitrate=N/A speed=15.4x    frame=22630 fps=369 q=-0.0 size=N/A time=00:15:43.85 bitrate=N/A speed=15.4x    frame=22817 fps=369 q=-0.0 size=N/A time=00:15:51.65 bitrate=N/A speed=15.4x    frame=23012 fps=369 q=-0.0 size=N/A time=00:15:59.79 bitrate=N/A speed=15.4x    frame=23204 fps=369 q=-0.0 size=N/A time=00:16:07.80 bitrate=N/A speed=15.4x    frame=23410 fps=369 q=-0.0 size=N/A time=00:16:16.39 bitrate=N/A speed=15.4x    frame=23604 fps=369 q=-0.0 size=N/A time=00:16:24.48 bitrate=N/A speed=15.4x    frame=23808 fps=369 q=-0.0 size=N/A time=00:16:32.99 bitrate=N/A speed=15.4x    frame=23996 fps=369 q=-0.0 size=N/A time=00:16:40.83 bitrate=N/A speed=15.4x    frame=24207 fps=369 q=-0.0 size=N/A time=00:16:49.63 bitrate=N/A speed=15.4x    frame=24402 fps=370 q=-0.0 size=N/A time=00:16:57.76 bitrate=N/A speed=15.4x    frame=24604 fps=370 q=-0.0 size=N/A time=00:17:06.19 bitrate=N/A speed=15.4x    frame=24799 fps=370 q=-0.0 size=N/A time=00:17:14.32 bitrate=N/A speed=15.4x    frame=25002 fps=370 q=-0.0 size=N/A time=00:17:22.79 bitrate=N/A speed=15.4x    frame=25202 fps=370 q=-0.0 size=N/A time=00:17:31.13 bitrate=N/A speed=15.4x    frame=25397 fps=370 q=-0.0 size=N/A time=00:17:39.26 bitrate=N/A speed=15.4x    frame=25601 fps=370 q=-0.0 size=N/A time=00:17:47.77 bitrate=N/A speed=15.4x    frame=25799 fps=370 q=-0.0 size=N/A time=00:17:56.03 bitrate=N/A speed=15.5x    frame=26000 fps=371 q=-0.0 size=N/A time=00:18:04.41 bitrate=N/A speed=15.5x    frame=26191 fps=371 q=-0.0 size=N/A time=00:18:12.38 bitrate=N/A speed=15.5x    frame=26392 fps=371 q=-0.0 size=N/A time=00:18:20.76 bitrate=N/A speed=15.5x    frame=26598 fps=371 q=-0.0 size=N/A time=00:18:29.35 bitrate=N/A speed=15.5x    frame=26803 fps=371 q=-0.0 size=N/A time=00:18:37.90 bitrate=N/A speed=15.5x    frame=26986 fps=371 q=-0.0 size=N/A time=00:18:45.54 bitrate=N/A speed=15.5x    frame=27170 fps=371 q=-0.0 size=N/A time=00:18:53.21 bitrate=N/A speed=15.5x    frame=27371 fps=371 q=-0.0 size=N/A time=00:19:01.59 bitrate=N/A speed=15.5x    frame=27562 fps=371 q=-0.0 size=N/A time=00:19:09.56 bitrate=N/A speed=15.5x    frame=27758 fps=371 q=-0.0 size=N/A time=00:19:17.73 bitrate=N/A speed=15.5x    frame=27950 fps=371 q=-0.0 size=N/A time=00:19:25.74 bitrate=N/A speed=15.5x    frame=28151 fps=371 q=-0.0 size=N/A time=00:19:34.13 bitrate=N/A speed=15.5x    frame=28349 fps=371 q=-0.0 size=N/A time=00:19:42.38 bitrate=N/A speed=15.5x    frame=28545 fps=371 q=-0.0 size=N/A time=00:19:50.56 bitrate=N/A speed=15.5x    frame=28730 fps=371 q=-0.0 size=N/A time=00:19:58.28 bitrate=N/A speed=15.5x    frame=28914 fps=371 q=-0.0 size=N/A time=00:20:05.95 bitrate=N/A speed=15.5x    frame=29099 fps=371 q=-0.0 size=N/A time=00:20:13.67 bitrate=N/A speed=15.5x    frame=29283 fps=371 q=-0.0 size=N/A time=00:20:21.38 bitrate=N/A speed=15.5x    frame=29466 fps=371 q=-0.0 size=N/A time=00:20:28.97 bitrate=N/A speed=15.5x    frame=29649 fps=371 q=-0.0 size=N/A time=00:20:36.61 bitrate=N/A speed=15.5x    frame=29832 fps=371 q=-0.0 size=N/A time=00:20:44.24 bitrate=N/A speed=15.5x    frame=30001 fps=370 q=-0.0 size=N/A time=00:20:51.29 bitrate=N/A speed=15.4x    frame=30187 fps=370 q=-0.0 size=N/A time=00:20:59.04 bitrate=N/A speed=15.4x    frame=30376 fps=370 q=-0.0 size=N/A time=00:21:06.93 bitrate=N/A speed=15.4x    frame=30577 fps=370 q=-0.0 size=N/A time=00:21:15.31 bitrate=N/A speed=15.4x    frame=30769 fps=370 q=-0.0 size=N/A time=00:21:23.32 bitrate=N/A speed=15.5x    frame=30961 fps=370 q=-0.0 size=N/A time=00:21:31.33 bitrate=N/A speed=15.5x    frame=31160 fps=371 q=-0.0 size=N/A time=00:21:39.63 bitrate=N/A speed=15.5x    frame=31357 fps=371 q=-0.0 size=N/A time=00:21:47.84 bitrate=N/A speed=15.5x    frame=31549 fps=371 q=-0.0 size=N/A time=00:21:55.85 bitrate=N/A speed=15.5x    frame=31742 fps=371 q=-0.0 size=N/A time=00:22:03.90 bitrate=N/A speed=15.5x    frame=31922 fps=371 q=-0.0 size=N/A time=00:22:11.41 bitrate=N/A speed=15.5x    frame=32110 fps=370 q=-0.0 size=N/A time=00:22:19.25 bitrate=N/A speed=15.5x    frame=32296 fps=370 q=-0.0 size=N/A time=00:22:27.01 bitrate=N/A speed=15.5x    frame=32493 fps=371 q=-0.0 size=N/A time=00:22:35.22 bitrate=N/A speed=15.5x    frame=32660 fps=370 q=-0.0 size=N/A time=00:22:42.19 bitrate=N/A speed=15.4x    frame=32826 fps=370 q=-0.0 size=N/A time=00:22:49.11 bitrate=N/A speed=15.4x    frame=32996 fps=370 q=-0.0 size=N/A time=00:22:56.20 bitrate=N/A speed=15.4x    frame=33163 fps=369 q=-0.0 size=N/A time=00:23:03.17 bitrate=N/A speed=15.4x    frame=33347 fps=369 q=-0.0 size=N/A time=00:23:10.84 bitrate=N/A speed=15.4x    frame=33498 fps=369 q=-0.0 size=N/A time=00:23:17.14 bitrate=N/A speed=15.4x    frame=33647 fps=368 q=-0.0 size=N/A time=00:23:23.36 bitrate=N/A speed=15.4x    frame=33781 fps=368 q=-0.0 size=N/A time=00:23:28.94 bitrate=N/A speed=15.3x    frame=33910 fps=367 q=-0.0 size=N/A time=00:23:34.32 bitrate=N/A speed=15.3x    frame=34074 fps=367 q=-0.0 size=N/A time=00:23:41.16 bitrate=N/A speed=15.3x    frame=34227 fps=367 q=-0.0 size=N/A time=00:23:47.55 bitrate=N/A speed=15.3x    frame=34360 fps=366 q=-0.0 size=N/A time=00:23:53.09 bitrate=N/A speed=15.3x    frame=34501 fps=365 q=-0.0 size=N/A time=00:23:58.97 bitrate=N/A speed=15.2x    [Parsed_psnr_16 @ 0000026a99b66f40] PSNR y:48.988728 u:50.351130 v:50.397693 average:49.403347 min:37.967354 max:inf
[out#0/null @ 0000026a8c5cfe80] video:14903KiB audio:271276KiB subtitle:0KiB other streams:0KiB global headers:0KiB muxing overhead: unknown
frame=34683 fps=365 q=-0.0 Lsize=N/A time=00:24:06.57 bitrate=N/A speed=15.2x    
